<?xml version="1.0" encoding="iso-8859-1"?>
<!-- Generator: Adobe Illustrator 19.0.0, SVG Export Plug-In . SVG Version: 6.00 Build 0)  -->
<svg version="1.1" id="Capa_1" xmlns="http://www.w3.org/2000/svg" xmlns:xlink="http://www.w3.org/1999/xlink" x="0px" y="0px"
	 viewBox="0 0 496 496" style="enable-background:new 0 0 496 496;" xml:space="preserve">
<circle style="fill:#4CAF50;" cx="162.56" cy="184" r="112"/>
<g>
	<path style="fill:#333333;" d="M427.064,411.608c-11.16-35.688-42.24-62.424-78.96-68.072l-33.544-6.192v-13.56
		c22.832-15.968,39.464-40.192,45.488-68.336c19.44-2.712,34.512-19.272,34.512-39.448v-72c0-79.4-64.6-144-144-144
		c-50.304,0-96.936,26.44-123,69.24c-49.144,15.016-85,60.768-85,114.76c0,52.128,33.464,96.472,80,113v56.712
		c-23.104,12.104-40.688,32.872-48.504,57.896L47.68,496h405.76L427.064,411.608z M411.8,416.376L431.68,480h-62.056l-7.128-56.992
		l-15.872,1.984L353.496,480H194.352c5.08-6.704,8.208-14.96,8.208-24v-89.688c10.144,8.928,25.752,17.688,48,17.688
		c34.464,0,53.008-21.008,59.944-31.136l34.928,6.44C376.4,364.072,402.448,386.472,411.8,416.376z M138.56,456V336h48v120
		c0,13.232-10.768,24-24,24S138.56,469.232,138.56,456z M298.56,341.888c-3.456,5.664-17.992,26.112-48,26.112
		c-30.024,0-44.472-20.272-48-26.104v-8.736c14.928,7.096,31.272,10.84,48,10.84c17.192,0,33.424-4.008,48-10.96V341.888z
		 M346.56,232c0,52.936-43.064,96-96,96c-16.952,0-33.44-4.48-48-12.904V297c6.44-2.288,12.656-5.04,18.536-8.344
		c9.088,4.72,19.128,7.344,29.464,7.344c35.288,0,64-28.712,64-64h-16c0,26.472-21.528,48-48,48c-4.648,0-9.232-0.696-13.632-2
		c27.744-22,45.632-55.92,45.632-94c0-6.152-0.608-12.152-1.512-18.056c26.104-5.296,47.752-12.936,65.512-23.208V232z
		 M362.224,238.632c0.128-2.208,0.336-4.392,0.336-6.632v-38.528c9.288,3.312,16,12.112,16,22.528
		C378.56,226.536,371.688,235.416,362.224,238.632z M250.56,16c70.576,0,128,57.424,128,128v40.208
		c-4.672-3.536-10.056-6.184-16-7.392V112.24l-12.728,9.312c-17.992,13.168-41.728,22.576-72.184,28.736
		C263.04,100.488,217.016,64,162.56,64c-4.168,0-8.288,0.216-12.352,0.632C174.288,34.264,211.152,16,250.56,16z M58.56,184
		c0-57.344,46.656-104,104-104s104,46.656,104,104s-46.656,104-104,104S58.56,241.344,58.56,184z M162.56,304
		c8.216,0,16.24-0.84,24-2.416V320h-48v-18.416C146.32,303.16,154.344,304,162.56,304z M89.32,416.376
		c5.696-18.2,17.568-33.688,33.24-44.12V456c0,9.04,3.128,17.296,8.208,24H69.44L89.32,416.376z"/>
	<path style="fill:#333333;" d="M302.56,208c11.032,0,20-8.976,20-20s-8.968-20-20-20s-20,8.976-20,20S291.528,208,302.56,208z
		 M302.56,184c2.2,0,4,1.792,4,4s-1.8,4-4,4s-4-1.792-4-4S300.36,184,302.56,184z"/>
	<path style="fill:#333333;" d="M250.56,184c0-17.728-5.248-34.824-15.176-49.432l-13.232,9c2.872,4.224,5.088,8.768,6.984,13.44
		c-23.264,2.008-50.4,2.992-82.576,2.992h-8v16.808c-5.944,1.216-11.328,3.856-16,7.392V144c0-7,0.632-14.008,1.76-20.896
		C135.416,116.112,148.504,112,162.56,112c19.488,0,37.744,7.664,51.4,21.584l11.424-11.208C208.688,105.368,186.384,96,162.56,96
		c-48.52,0-88,39.48-88,88s39.48,88,88,88S250.56,232.52,250.56,184z M202.56,188c0,2.208-1.8,4-4,4s-4-1.792-4-4s1.8-4,4-4
		S202.56,185.792,202.56,188z M154.56,175.984c9.992-0.048,19.448-0.216,28.504-0.464c-2.776,3.424-4.504,7.736-4.504,12.48
		c0,11.024,8.968,20,20,20s20-8.976,20-20c0-5.344-2.136-10.184-5.568-13.776c7.2-0.44,14.064-0.96,20.64-1.56
		c0.592,3.728,0.928,7.504,0.928,11.336c0,24.344-12.176,45.864-30.72,58.904c-0.832-3.552-1.28-7.184-1.28-10.904h-16
		c0,6.44,0.992,12.712,2.848,18.752c-8.304,3.352-17.352,5.248-26.848,5.248c-1.688,0-3.336-0.136-4.992-0.256
		c-1.968-7.72-3.008-15.672-3.008-23.744V175.984z M138.56,193.472V232c0,2.208,0.128,4.408,0.256,6.608
		c-9.424-3.24-16.256-12.096-16.256-22.608C122.56,205.584,129.272,196.784,138.56,193.472z M90.56,184
		c0-17.24,6.104-33.072,16.24-45.48c-0.072,1.832-0.24,3.656-0.24,5.48v72c0,6.696,1.816,12.92,4.736,18.472
		C98.488,221.464,90.56,203.648,90.56,184z"/>
</g>
<g>
</g>
<g>
</g>
<g>
</g>
<g>
</g>
<g>
</g>
<g>
</g>
<g>
</g>
<g>
</g>
<g>
</g>
<g>
</g>
<g>
</g>
<g>
</g>
<g>
</g>
<g>
</g>
<g>
</g>
</svg>
